<?xml version="1.0" encoding="utf-8"?>
<!-- Generator: Adobe Illustrator 24.2.0, SVG Export Plug-In . SVG Version: 6.00 Build 0)  -->
<svg version="1.1" id="Layer_1" xmlns="http://www.w3.org/2000/svg" xmlns:xlink="http://www.w3.org/1999/xlink" x="0px" y="0px"
	 viewBox="0 0 28.8 41.8" style="enable-background:new 0 0 28.8 41.8;" xml:space="preserve">
<style type="text/css">
	.st0{fill:#020202;}
</style>
<g id="hanger_x5F_background_xA0_Image_1_">
	<g>
		<g>
			<g>
				<path class="st0" d="M17.1,13.6c0.3-1.6,0.7-3.1,0.9-4.7c0-0.3-0.4-0.8-0.8-1c-0.3-0.1-0.9,0-1.2,0.3c-0.3,0.3-0.5,0.8-0.6,1.3
					c-0.8,2.7-1.5,5.5-2.5,8.7c-0.7-1.6-0.4-2.8-0.2-3.9c0.2-1.4,0.6-2.8,0.6-4.3c0-0.5-0.5-1.1-0.9-1.5s-1.5,0.3-1.6,1.2
					c-0.5,3-1,6-1.4,9C8.2,18.8,8,18,8,17.2c0.1-1.3,0.3-2.5,0.3-3.8c0-0.5-0.6-0.9-1-1.4c-0.4,0.4-1.1,0.8-1.2,1.2
					c-0.3,1.1-0.4,2.2-0.3,3.3c0.4,5-1.1,9.8-1.1,14.8c0,1.1-0.5,2.2-0.9,3.2c-0.1,0.4-0.5,0.9-0.9,1c-0.9,0.3-1-0.6-1.1-1.1
					c-2.1-7.9-2.5-15.8-0.3-23.7C4,1.8,12.6-2.2,21.2,1.3c2.1,0.9,3.8,2.3,4.9,4.4c0.5,1,1,2,1.3,3.1c1.9,7.7,2,15.5-0.1,23.2
					c-1.9,6.9-6.3,9.9-13.5,9.8c-1.1,0-2.2-0.1-3.3-0.3c-0.7-0.1-1.2-0.6-1-1.3c0.9-2.8,2-5.5,4.9-6.7c4.4-1.9,7.1-5.8,11-8.3
					c0.2-0.1,0.3-0.6,0.2-0.8c-0.3-0.4-0.7-0.9-1-0.8c-1.1,0.2-2.1,0.5-3.1,0.9c-1.1,0.5-2.1,2.4-3.2,1.6c-1.5-1.1-0.3-2.9,0.1-4.3
					c0.8-2.6,2-5.1,2.9-7.6c0.3-0.9,0.6-1.8,0.7-2.7c0-0.3-0.3-1-0.7-1.1c-0.3-0.1-1.1,0.1-1.2,0.4c-0.8,1.6-1.5,3.2-2.2,4.8
					C16.2,15.6,16.9,14.4,17.1,13.6z"/>
				<path d="M17.1,13.6c0.3,0.7,0.6,1.3,1,2c-0.3,1-0.6,2.1-1,3.1C17,19,16.4,19.5,16,19.4c-0.9-0.1-0.7-0.9-0.5-1.4
					C16,16.4,16.5,15,17.1,13.6z"/>
			</g>
		</g>
	</g>
</g>
</svg>
