<?xml version="1.0" encoding="utf-8"?>
<!-- Generator: Adobe Illustrator 24.2.0, SVG Export Plug-In . SVG Version: 6.00 Build 0)  -->
<svg version="1.1" id="Layer_1" xmlns="http://www.w3.org/2000/svg" xmlns:xlink="http://www.w3.org/1999/xlink" x="0px" y="0px"
	 viewBox="0 0 309.9 73.1" style="enable-background:new 0 0 309.9 73.1;" xml:space="preserve">
<style type="text/css">
	.st0{fill:#010101;}
	.st1{fill:#020202;}
	.st2{fill:#040404;}
	.st3{fill:#050505;}
	.st4{fill:#5E5E5E;}
</style>
<g id="hanger_x5F_background_xA0_Image_1_">
	<g>
		<g>
			<g>
				<path d="M86.9,57.3c-2,1-4.1,0.7-6.2,0.8c-3.2,0-3.2,0-3.2-3.2c-0.1-7.5-0.1-15-0.2-22.6c0-1.4-0.1-2.9-0.4-4.3
					c-0.4-1.7-2-2.4-3.8-1.8c-0.8,0.3-1.5,0.7-1.5,1.7c0,1.1,0,2.2,0,3.4c0,7.2,0.1,14.4,0.1,21.6c0,1.1,0,2.2,0,3.4
					c0,0.9-0.6,1.4-1.4,1.6c-0.5,0.1-0.9,0.2-1.4,0.2c-8,0-6.7,1.3-6.8-6.2C62,45.3,62,38.8,61.9,32.2c0-1.4-0.1-2.9-0.4-4.3
					c-0.3-1.5-1.4-2.1-2.8-1.9c-1.5,0.2-2.5,1.1-2.5,2.4c0,2.2,0,4.5,0,6.7c0,6.7,0.1,13.4,0.1,20.2c0,2.3-0.5,2.8-2.8,2.9
					c-1.8,0.1-3.5,0.1-5.3,0.1c-1.3,0-1.7-0.7-1.7-1.8c0-3.2,0-6.4-0.1-9.6c-0.1-7.5-0.2-15-0.3-22.6c0-3.2,0.1-3.5,3.2-4.3
					c5.5-1.4,10.9-2.4,16.5-0.1c0.9,0.4,2.2,0,3.2-0.3c3.7-1.1,7.5-1.5,11.4-0.8c3.2,0.6,5.3,2.2,5.9,5.4c0.3,1.4,0.6,2.8,0.6,4.3
					c0.1,9.1,0.1,18.2,0.2,27.4C87.2,56.3,87,56.8,86.9,57.3z"/>
				<path class="st0" d="M279.7,41.8c1.1-6.5,2.1-12.9,3.2-19.4c0.5-3.1,0.8-3.3,3.6-3.3c1.7,0,3.5,0.2,5.2,0.3c0.4,1.7,1,3.3,1.3,5
					c1,5.5,1.9,11,2.9,17c0.5-0.9,1-1.4,1.1-1.9c0.8-5.4,1.5-10.8,2.3-16.1c0.1-0.8,0.2-1.6,0.4-2.4c0.4-1.9,0.9-2.4,2.8-2.6
					c0.6-0.1,1.3-0.1,1.9-0.1c5.8,0.1,6.3-1.1,4.7,5.4c-2.1,9-4,18.1-6,27.1c-0.3,1.6-0.8,3.1-1.1,4.7c-0.3,1.5-1.3,2.1-2.7,2.1
					c-1.3,0-2.6,0.2-3.8,0.1c-3.6-0.1-4.9-1.1-5.8-4.5s-1.6-6.8-2.5-10.8c-0.9,4.1-1.6,7.7-2.4,11.3c-0.2,0.8-0.3,1.6-0.6,2.3
					c-0.2,0.8-0.7,1.4-1.7,1.4c-2.1,0.1-4.2,0.2-6.2,0.2c-2.1,0-3.2-1.2-3.9-3c-0.4-1-0.7-2.1-0.9-3.2c-2.2-10-4.5-19.9-6.7-29.9
					c-0.1-0.5-0.3-1-0.2-1.4c0.2-0.5,0.6-1.4,0.9-1.4c3-0.2,6-0.4,9-0.3c0.4,0,1.1,1.1,1.2,1.8c0.5,2.8,0.9,5.7,1.3,8.5
					c0.4,3.2,0.8,6.3,1.2,9.5c0.2,1.2,0.5,2.4,0.8,3.7C279.4,41.9,279.5,41.8,279.7,41.8z"/>
				<path d="M212.9,19.1c1.5-0.5,2.7-0.8,3.8-1.2c2.2-0.8,4.4-0.9,6.6-0.7c2.6,0.2,4.5,1.5,5.2,4.2c0.4,1.5,0.7,3.1,0.7,4.7
					c0.1,9.6,0.1,19.2,0.1,28.8c0,1.9-0.5,2.4-2.2,2.4c-2.2,0.1-4.5,0.1-6.7,0c-0.4,0-1.1-0.7-1.2-1.2c-0.2-1.1-0.1-2.2-0.1-3.3
					c0-6.6,0.1-13.1,0-19.7c0-1.9-0.2-3.8-0.4-5.7c-0.2-1.7-1.3-2.4-3.1-2.1c-0.5,0.1-0.9,0.2-1.4,0.3c-0.9,0.2-1.4,0.7-1.4,1.7
					c0,1.1,0,2.2,0,3.4c0,7.2,0,14.4,0,21.6c0,1.1,0,2.2,0,3.4c-0.1,0.9-0.6,1.5-1.5,1.6c-2.4,0.1-4.8,0.2-7.2,0.1
					c-0.4,0-1-0.8-1.1-1.3c-0.2-1.1-0.1-2.2-0.1-3.3c0-15.5,0.1-31,0.1-46.5c0-4.7-0.7-6.3,6.2-6.3c0.5,0,1,0,1.4,0
					c2,0.1,2.2,0.1,2.2,2.2c0,4,0,8,0,12C212.9,15.6,212.9,17.2,212.9,19.1z"/>
				<path class="st0" d="M186.7,16.8c2.9,0.5,5.6,0.7,8.2,1.3c4.1,1,3.6,4.6,1.7,7.1c-0.3,0.4-1.2,0.5-1.7,0.4
					c-2.3-0.9-4.7-1.1-7.1-1c-0.8,0-1.6,0.2-2.3,0.5c-0.8,0.3-1.4,1.8-1,2.4c0.8,1.2,1.6,2.4,2.6,3.4c2.4,2.6,4.9,5,7.4,7.5
					c2.5,2.6,3.5,5.6,3.3,9.2c-0.2,3.7-1.8,6.4-4.9,8.3c-0.7,0.4-1.4,0.8-2.1,1.1c-4.8,1.7-9.7,1.8-14.6,0.5
					c-3.4-0.9-4.1-2.3-3.2-5.7c0.2-0.6,0.3-1.3,0.7-1.8c0.3-0.4,1-0.8,1.5-0.8c1.1,0.1,2.1,0.7,3.2,0.8c1.4,0.2,2.9,0.4,4.3,0.3
					c3.2-0.2,4.5-2.3,3.3-5.3c-0.5-1.1-1.4-2.2-2.2-3.1c-2.2-2.3-4.6-4.5-6.7-6.9c-1.4-1.7-2.8-3.5-3.7-5.5
					c-2.2-5.1,0.1-10.2,5.5-11.7C181.3,17.3,184.1,17.2,186.7,16.8z"/>
				<path class="st1" d="M251.1,30.4c0.3-1.6,0.7-3.1,0.9-4.7c0-0.3-0.4-0.8-0.8-1c-0.3-0.1-0.9,0-1.2,0.3s-0.5,0.8-0.6,1.3
					c-0.8,2.7-1.5,5.5-2.5,8.7c-0.7-1.6-0.4-2.8-0.2-3.9c0.2-1.4,0.6-2.8,0.6-4.3c0-0.5-0.5-1.1-0.9-1.5s-1.5,0.3-1.6,1.2
					c-0.5,3-1,6-1.4,9c-1.2,0.1-1.4-0.7-1.4-1.5c0.1-1.3,0.3-2.5,0.3-3.8c0-0.5-0.6-0.9-1-1.4c-0.4,0.4-1.1,0.8-1.2,1.2
					c-0.3,1.1-0.4,2.2-0.3,3.3c0.4,5-1.1,9.8-1.1,14.8c0,1.1-0.5,2.2-0.9,3.2c-0.1,0.4-0.5,0.9-0.9,1c-0.9,0.3-1-0.6-1.1-1.1
					c-2.1-7.9-2.5-15.8-0.3-23.7c2.5-8.9,11.1-12.9,19.7-9.4c2.1,0.9,3.8,2.3,4.9,4.4c0.5,1,1,2,1.3,3.1c1.9,7.7,2,15.5-0.1,23.2
					c-1.9,6.9-6.3,9.9-13.5,9.8c-1.1,0-2.2-0.1-3.3-0.3c-0.7-0.1-1.2-0.6-1-1.3c0.9-2.8,2-5.5,4.9-6.7c4.4-1.9,7.1-5.8,11-8.3
					c0.2-0.1,0.3-0.6,0.2-0.8c-0.3-0.4-0.7-0.9-1-0.8c-1.1,0.2-2.1,0.5-3.1,0.9c-1.1,0.5-2.1,2.4-3.2,1.6c-1.5-1.1-0.3-2.9,0.1-4.3
					c0.8-2.6,2-5.1,2.9-7.6c0.3-0.9,0.6-1.8,0.7-2.7c0-0.3-0.3-1-0.7-1.1c-0.3-0.1-1.1,0.1-1.2,0.4c-0.8,1.6-1.5,3.2-2.2,4.8
					C250.2,32.4,250.9,31.2,251.1,30.4z"/>
				<path class="st0" d="M13.6,18.7c2.9,0.4,5.6,0.6,8.2,1.3c3.3,0.9,4.1,4.7,1.6,7.1c-0.3,0.3-1.2,0.3-1.7,0.2
					c-2.2-0.2-4.4-0.6-6.6-0.8c-0.8-0.1-1.6,0.2-2.3,0.4c-0.9,0.3-1.5,1.6-1,2.4c0.7,1.1,1.4,2.1,2.3,3.1c2.4,2.5,5,5,7.5,7.5
					c2.6,2.7,3.8,5.8,3.5,9.6c-0.2,3.1-1.6,5.5-4,7.3c-1.8,1.4-3.9,2.3-6.2,2.5c-3.2,0.2-6.4,0.2-9.6,0c-1.1,0-2.2-0.5-3.2-1
					c-1.3-0.6-1.9-1.7-1.7-3.1c0.1-0.9,0.3-1.9,0.6-2.8c0.4-1.3,1.1-1.8,2.5-1.3c2.3,0.8,4.7,1,7.1,0.8c2.7-0.2,3.9-2.1,2.9-4.7
					c-0.4-1.1-1.2-2.2-2.1-3.1c-2.3-2.5-4.7-4.8-7.1-7.2c-1.6-1.6-2.9-3.4-3.7-5.5c-1.8-4.9,0.3-9.6,5.2-11.1
					C8.2,19.3,11,19.1,13.6,18.7z"/>
				<path class="st2" d="M135.9,29.2c0,7.7,0,15.3,0,23c0,1.1,0,2.2,0,3.3s-0.5,1.8-1.7,1.9c-0.6,0.1-1.3,0.1-1.9,0.1
					c-7.2,0-6.1,1.2-6.2-5.8c-0.2-13.6-0.3-27.1-0.5-40.7c0-1,0-1.9,0-2.9c-0.1-6-0.3-6.8,7.1-7.1c0.2,0,0.3,0,0.5,0
					c1.6,0,2.1,0.4,2.2,1.8c0.1,0.8,0,1.6,0,2.4c0,8,0,15.9,0,23.9C135.6,29.2,135.8,29.2,135.9,29.2z"/>
				<path class="st2" d="M39.9,39c0,5.4,0,10.9,0,16.3c0,2.4-0.5,3-2.7,3c-8.5,0-7.2,1.5-7.4-6.7c-0.2-8.3-0.2-16.6-0.2-24.9
					c0-1.1-0.1-2.2,0-3.4c0.2-1.9,1-2.9,3-3.2c1.6-0.2,3.2-0.2,4.8-0.2c1.9,0,2.2,0.3,2.2,2.3c0,5.6,0,11.2,0,16.8
					C39.8,39,39.8,39,39.9,39z"/>
				<path class="st3" d="M39.5,6.5c-0.1,1-0.1,1.9-0.3,2.9c-0.7,3.1-3.6,4.8-6.6,3.7c-0.8-0.3-1.7-1-2.1-1.8c-1.2-2.2-1.2-4.6-0.4-7
					c1-2.9,4.8-4,7.6-2.5c0.6,0.3,1.1,1.2,1.4,1.9C39.3,4.6,39.3,5.6,39.5,6.5z"/>
				<path class="st4" d="M251.1,30.4c0.3,0.7,0.6,1.3,1,2c-0.3,1-0.6,2.1-1,3.1c-0.1,0.3-0.7,0.8-1.1,0.7c-0.9-0.1-0.7-0.9-0.5-1.4
					C250,33.2,250.5,31.8,251.1,30.4z"/>
				<path d="M119.8,28.6c-1.1-6.4-4.9-9.8-11.3-10.4c-3.9-0.4-7.6,0.3-11.3,1.5C93.3,21,93.3,21,93.3,25c0.1,14.4,0.3,28.7,0.4,43.1
					c0,1,0,2,0.1,2.9c0.1,1,0.8,1.8,1.8,1.9c1.4,0.2,2.9,0.2,4.3,0.1c3.4-0.2,3.5-0.3,3.5-3.6c0-3.6,0-7.3,0-11.2
					c1.4,0.3,2.4,0.6,3.5,0.7c3.9,0.6,7-0.6,9.1-3.9c1.1-1.5,2-3.3,2.5-5.1C120.4,42.9,121,35.8,119.8,28.6z M108.4,47.8
					c-0.1,0.9-0.6,1.8-1.1,2.6c-0.6,0.8-1.5,1.1-2.5,0.7c-0.8-0.3-1.3-0.9-1.3-1.8c0-1.1,0-2.2-0.1-3.4c0-5.9-0.1-11.8-0.1-17.7
					c0-1.5,0.6-2.3,1.7-2.5c1.7-0.3,3,0.2,3.5,1.7c0.4,1,0.7,2.1,0.7,3.2l0.4,6.8C109.2,40.9,108.9,44.4,108.4,47.8z"/>
				<path class="st0" d="M166.7,48.5c-2.7,0.6-5,1.2-7.3,1.5c-6,0.8-7.5-0.3-7.7-6.9c1.3-0.1,2.2-0.2,3-0.3c3.2-0.2,6.4-0.5,9.6-0.8
					c2.2-0.2,2.3-0.4,2.8-2.6c0.9-4.1,0.9-8.3,0.4-12.4c-0.1-1.2-0.6-2.5-1.1-3.6c-1.3-2.8-3.5-4.7-6.5-5.1
					c-2.7-0.3-5.5-0.3-8.1,0.2c-3.5,0.6-6,2.8-7.6,6c-0.6,1.3-1.1,2.6-1.5,4c-1.6,6.4-1.4,13-0.5,19.5c0.3,1.7,1,3.4,1.7,5
					c1.3,2.8,3.5,4.7,6.5,5.2c5.1,0.9,10.2,0.6,15.1-1.1c1.6-0.6,2.1-1.3,2-2.9C167.3,52.3,167,50.5,166.7,48.5z M152.6,27.6
					c0.3-1.4,1.6-2.1,2.9-2s2.2,0.9,2.4,2.5c0.4,1.1,0.4,2.4,0.4,3.4c-0.1,1.1-0.1,1.9-0.2,2.7c-0.1,0.4-0.3,1-0.7,1.2
					c-1.6,0.9-3.4,1-5.1,0.7c-0.3-0.1-0.8-0.7-0.8-1C151.8,32.6,152.1,30,152.6,27.6z"/>
			</g>
		</g>
	</g>
</g>
</svg>
